Coordinates
nRows=261
nColumns=2
inDegrees=yes
endheader
time	ankle_angle_r	
2.79418	  9.689331	
2.82744	  9.689331	
2.8607	  9.628296	
2.89397	  9.750366	
2.92723	  9.674072	
2.9605	  9.628296	
2.99376	  9.704590	
3.02702	  9.674072	
3.06029	  9.658813	
3.09355	  9.674072	
3.12682	  9.674072	
3.16008	  9.643555	
3.19334	  9.704590	
3.22661	  9.689331	
3.25987	  9.658813	
3.29314	  9.719849	
3.3264	  9.704590	
3.35966	  9.643555	
3.39293	  9.719849	
3.42619	  9.674072	
3.45946	  9.613037	
3.49272	  9.704590	
3.52598	  9.765625	
3.55925	  9.643555	
3.59251	  9.674072	
3.62578	  9.719849	
3.65904	  9.628296	
3.6923	  9.658813	
3.72557	  9.689331	
3.75883	  9.674072	
3.7921	  9.765625	
3.82536	  9.811401	
3.85862	  9.704590	
3.89189	  9.811401	
3.92515	  9.750366	
3.95842	  9.704590	
3.99168	  9.765625	
4.02494	  9.689331	
4.05821	  9.780884	
4.09147	  9.735107	
4.12474	  9.689331	
4.158	  9.689331	
4.19126	  9.857178	
4.22453	  9.704590	
4.25779	  9.643555	
4.29106	  9.719849	
4.32432	  9.567261	
4.35758	  9.628296	
4.39085	  9.658813	
4.42411	  9.567261	
4.45738	  9.552002	
4.49064	  9.628296	
4.5239	  9.597778	
4.55717	  9.552002	
4.59043	  9.674072	
4.6237	  9.582520	
4.65696	  9.567261	
4.69022	  9.613037	
4.72349	  9.597778	
4.75675	  9.521484	
4.79002	  9.613037	
4.82328	  9.613037	
4.85654	  9.613037	
4.88981	  9.643555	
4.92307	  9.613037	
4.95634	  9.643555	
4.9896	  9.704590	
5.02286	  9.658813	
5.05613	  9.658813	
5.08939	  9.689331	
5.12266	  9.643555	
5.15592	  9.719849	
5.18918	  9.765625	
5.22245	  9.658813	
5.25571	  9.780884	
5.28898	  9.826660	
5.32224	  9.704590	
5.3555	  9.765625	
5.38877	  9.811401	
5.42203	  9.719849	
5.4553	  9.796143	
5.48856	  9.811401	
5.52182	  9.750366	
5.55509	  9.780884	
5.58835	  9.780884	
5.62162	  9.796143	
5.65488	  9.826660	
5.68814	  9.841919	
5.72141	  9.750366	
5.75467	  9.841919	
5.78794	  9.780884	
5.8212	  9.750366	
5.85446	  9.750366	
5.88773	  9.796143	
5.92099	  9.735107	
5.95426	  9.780884	
5.98752	  9.658813	
6.02078	  9.689331	
6.05405	  9.765625	
6.08731	  9.674072	
6.12058	  9.704590	
6.15384	  9.719849	
6.1871	  9.643555	
6.22037	  9.658813	
6.25363	  9.735107	
6.2869	  9.643555	
6.32016	  9.689331	
6.35342	  9.704590	
6.38669	  9.613037	
6.41995	  9.643555	
6.45322	  9.765625	
6.48648	  9.658813	
6.51974	  9.658813	
6.55301	  9.735107	
6.58627	  9.704590	
6.61954	  9.582520	
6.6528	  9.643555	
6.68606	  9.658813	
6.71933	  9.628296	
6.75259	  9.674072	
6.78586	  9.643555	
6.81912	  9.658813	
6.85238	  9.658813	
6.88565	  9.658813	
6.91891	  9.674072	
6.95218	  9.719849	
6.98544	  9.658813	
7.0187	  9.811401	
7.05197	  9.796143	
7.08523	  9.704590	
7.1185	  9.780884	
7.15176	  9.735107	
7.18502	  9.750366	
7.21829	  9.780884	
7.25155	  9.796143	
7.28482	  9.750366	
7.31808	  9.796143	
7.35134	  9.811401	
7.38461	  9.750366	
7.41787	  9.796143	
7.45114	  9.750366	
7.4844	  9.704590	
7.51766	  9.796143	
7.55093	  9.765625	
7.58419	  9.735107	
7.61746	  9.750366	
7.65072	  9.826660	
7.68398	  9.719849	
7.71725	  9.796143	
7.75051	  9.826660	
7.78378	  9.704590	
7.81704	  9.780884	
7.8503	  9.841919	
7.88357	  9.674072	
7.91683	  9.735107	
7.9501	  9.765625	
7.98336	  9.674072	
8.01662	  9.750366	
8.04989	  9.643555	
8.08315	  9.597778	
8.11642	  9.689331	
8.14968	  9.582520	
8.18294	  9.567261	
8.21621	  9.658813	
8.24947	  9.552002	
8.28274	  9.567261	
8.316	  9.643555	
8.34926	  9.567261	
8.38253	  9.582520	
8.41579	  9.628296	
8.44906	  9.536743	
8.48232	  9.536743	
8.51558	  9.658813	
8.54885	  9.567261	
8.58211	  9.552002	
8.61538	  9.628296	
8.64864	  9.597778	
8.6819	  9.567261	
8.71517	  9.674072	
8.74843	  9.597778	
8.7817	  9.658813	
8.81496	  9.674072	
8.84822	  9.689331	
8.88149	  9.674072	
8.91475	  9.750366	
8.94802	  9.750366	
8.98128	  9.704590	
9.01454	  9.765625	
9.04781	  9.704590	
9.08107	  9.674072	
9.11434	  9.719849	
9.1476	  9.658813	
9.18086	  9.735107	
9.21413	  9.735107	
9.24739	  9.719849	
9.28066	  9.780884	
9.31392	  9.780884	
9.34718	  9.704590	
9.38045	  9.765625	
9.41371	  9.841919	
9.44698	  9.719849	
9.48024	  9.780884	
9.5135	  9.765625	
9.54677	  9.643555	
9.58003	  9.689331	
9.6133	  9.750366	
9.64656	  9.674072	
9.67982	  9.719849	
9.71309	  9.719849	
9.74635	  9.628296	
9.77962	  9.735107	
9.81288	  9.719849	
9.84614	  9.597778	
9.87941	  9.658813	
9.91267	  9.689331	
9.94594	  9.597778	
9.9792	  9.674072	
10.0125	  9.628296	
10.0457	  9.597778	
10.079	  9.674072	
10.1123	  9.597778	
10.1455	  9.597778	
10.1788	  9.658813	
10.212	  9.613037	
10.2453	  9.628296	
10.2786	  9.704590	
10.3118	  9.597778	
10.3451	  9.613037	
10.3784	  9.719849	
10.4116	  9.628296	
10.4449	  9.689331	
10.4782	  9.735107	
10.5114	  9.704590	
10.5447	  9.704590	
10.578	  9.765625	
10.6112	  9.704590	
10.6445	  9.643555	
10.6777	  9.674072	
10.711	  9.719849	
10.7443	  9.567261	
10.7775	  9.704590	
10.8108	  9.689331	
10.8441	  9.643555	
10.8773	  9.735107	
10.9106	  9.643555	
10.9439	  9.674072	
10.9771	  9.719849	
11.0104	  9.689331	
11.0436	  9.750366	
11.0769	  9.750366	
11.1102	  9.704590	
11.1434	  9.750366	
11.1767	  9.735107	
11.21	  9.735107	
11.2432	  9.826660	
11.2765	  9.796143	
11.3098	  9.765625	
11.343	  9.765625	
11.3763	  9.826660	
11.4096	  9.658813	
11.4428	  9.780884	
